<svg xmlns="http://www.w3.org/2000/svg" fill="#ffff" height="24" viewBox="0 -960 960 960" width="24"><path d="M682.654-549.731v-108h-108v-28.923h108v-108h28.923v108h108v28.923h-108v108h-28.923ZM366.208-191.269q-61.062 0-103.789-42.651-42.727-42.65-42.727-103.926 0-42.892 22.519-78.581 22.519-35.688 60.866-54.598v-235.343q0-26.161 18.31-44.512t45.346-18.351q27.036 0 45.325 18.351 18.288 18.351 18.288 44.842v234.922q36.962 20.001 60.173 55.426 23.212 35.425 23.212 77.344 0 61.745-43.151 104.411-43.15 42.666-104.372 42.666ZM332-552.615h69.423v-153.586q0-14.022-10.1-24.064-10.1-10.043-24.519-10.043-14.42 0-24.612 10.016Q332-720.276 332-705.854v153.239Z"/></svg>