<svg xmlns="http://www.w3.org/2000/svg" fill="#ffff" height="24" viewBox="0 -960 960 960" width="24"><path d="M574.654-657.731v-28.923h244.923v28.923H574.654ZM366.208-191.269q-61.062 0-103.789-42.651-42.727-42.65-42.727-103.926 0-42.892 22.519-78.581 22.519-35.688 60.866-54.598v-235.343q0-26.161 18.31-44.512t45.346-18.351q27.036 0 45.325 18.351 18.288 18.351 18.288 44.842v234.922q36.962 20.001 60.173 55.426 23.212 35.425 23.212 77.344 0 61.745-43.151 104.411-43.15 42.666-104.372 42.666ZM248.615-338.346h236.192q0-28.616-14.799-54.509-14.8-25.894-39.431-42.991l-29.154-20.877v-249.01q0-14.132-10.1-24.354-10.1-10.221-24.519-10.221-14.42 0-24.612 10.016Q332-720.276 332-705.928v249.313l-30.154 19.769q-24 17.5-38.615 43.133-14.616 25.633-14.616 55.367Z"/></svg>