<svg xmlns="http://www.w3.org/2000/svg" fill="#ffff" height="24" viewBox="0 -960 960 960" width="24"><path d="M456.201-178.154q-35.102 0-61.171-21.788-26.069-21.789-32.992-54.52H392.5q5.769 21.27 23.333 34.327 17.565 13.058 40.72 13.058 28.155 0 48.358-20.146 20.204-20.146 20.204-48.522 0-28.376-20.241-48.469-20.241-20.094-48.374-20.094H120.808v-28.923h335.719q40.229 0 68.871 28.574 28.641 28.573 28.641 69.173 0 40.599-28.676 68.965-28.675 28.365-69.162 28.365ZM120.808-562.769v-28.924h513.669q32.869 0 56.831-24.044 23.961-24.045 23.961-56.571 0-32.525-23.961-56.57-23.962-24.045-56.77-24.045-28.194 0-49.616 17.192-21.422 17.193-27.191 42.193h-30.462q6.923-38.885 36.922-63.597 29.998-24.711 70.463-24.711 45.423 0 77.481 32.043 32.057 32.043 32.057 77.58t-32.15 77.496q-32.151 31.958-77.42 31.958H120.808Zm630.461 297.538v-30.461q25.116-6.154 42.25-27.688 17.135-21.534 17.135-49.897 0-32.979-23.937-56.774-23.938-23.795-56.731-23.795H120.808v-28.923h609.236q45.232 0 77.382 31.965 32.151 31.965 32.151 77.388 0 40.038-24.904 70.65-24.904 30.612-63.404 37.535Z"/></svg>